<svg width="120" height="120" viewBox="0 0 120 120" fill="none" xmlns="http://www.w3.org/2000/svg">
<path d="M27.5 19.9C27.5 19.0599 27.5 18.6399 27.6635 18.319C27.8073 18.0368 28.0368 17.8073 28.319 17.6635C28.6399 17.5 29.0599 17.5 29.9 17.5H66.5059C66.8728 17.5 67.0562 17.5 67.2288 17.5414C67.3819 17.5782 67.5282 17.6388 67.6624 17.721C67.8138 17.8138 67.9435 17.9435 68.2029 18.2029L91.7971 41.7971C92.0565 42.0565 92.1862 42.1862 92.279 42.3376C92.3612 42.4718 92.4218 42.6181 92.4586 42.7712C92.5 42.9438 92.5 43.1272 92.5 43.4941V100.1C92.5 100.94 92.5 101.36 92.3365 101.681C92.1927 101.963 91.9632 102.193 91.681 102.337C91.3601 102.5 90.9401 102.5 90.1 102.5H29.9C29.0599 102.5 28.6399 102.5 28.319 102.337C28.0368 102.193 27.8073 101.963 27.6635 101.681C27.5 101.36 27.5 100.94 27.5 100.1V19.9Z" stroke="white"/>
<path d="M62.5 17.5V45.1C62.5 45.9401 62.5 46.3601 62.6635 46.681C62.8073 46.9632 63.0368 47.1927 63.319 47.3365C63.6399 47.5 64.0599 47.5 64.9 47.5H92.5" stroke="white"/>
</svg>
