<svg width="250" height="250" viewBox="0 0 250 250" fill="none" xmlns="http://www.w3.org/2000/svg">
<path d="M124.917 151C142.208 151 156.167 137.042 156.167 119.75V57.25C156.167 39.9583 142.208 26 124.917 26C107.625 26 93.6667 39.9583 93.6667 57.25V119.75C93.6667 137.042 107.625 151 124.917 151ZM114.5 57.25C114.5 51.5208 119.188 46.8333 124.917 46.8333C130.646 46.8333 135.333 51.5208 135.333 57.25V119.75C135.333 125.479 130.646 130.167 124.917 130.167C119.188 130.167 114.5 125.479 114.5 119.75V57.25ZM177 119.75C177 148.5 153.667 171.833 124.917 171.833C96.1667 171.833 72.8333 148.5 72.8333 119.75H52C52 156.521 79.1875 186.729 114.5 191.833V223.917H135.333V191.833C170.646 186.729 197.833 156.521 197.833 119.75H177Z" fill="url(#paint0_diamond_284_39)"/>
<defs>
<radialGradient id="paint0_diamond_284_39" cx="0" cy="0" r="1" gradientUnits="userSpaceOnUse" gradientTransform="translate(125 133.5) rotate(90) scale(90.5 146.916)">
<stop stop-color="#00FFFF"/>
<stop offset="1" stop-color="white" stop-opacity="0.75"/>
</radialGradient>
</defs>
</svg>
