<svg width="480" height="480" viewBox="0 0 48 48" fill="none" xmlns="http://www.w3.org/2000/svg">
<path d="M21.35 38.4C22.7167 38.4 23.8833 37.925 24.85 36.975C25.8167 36.025 26.3 34.8667 26.3 33.5V23.4H32.1V20.4H24.3V29.75C23.9333 29.45 23.4917 29.2167 22.975 29.05C22.4583 28.8833 21.9167 28.8 21.35 28.8C20.05 28.8 18.95 29.2583 18.05 30.175C17.15 31.0917 16.7 32.2 16.7 33.5C16.7 34.8333 17.15 35.9833 18.05 36.95C18.95 37.9167 20.05 38.4 21.35 38.4ZM11 44C10.2 44 9.5 43.7 8.9 43.1C8.3 42.5 8 41.8 8 41V7C8 6.2 8.3 5.5 8.9 4.9C9.5 4.3 10.2 4 11 4H29.05L40 14.95V41C40 41.8 39.7 42.5 39.1 43.1C38.5 43.7 37.8 44 37 44H11ZM27.55 16.3V7H11V41H37V16.3H27.55ZM11 7V16.3V7V16.3V41V7Z" fill="white"/>
</svg>
