<svg width="840" height="840" viewBox="0 0 42 42" fill="none" xmlns="http://www.w3.org/2000/svg">
<path d="M21 24.5C23.905 24.5 26.25 22.155 26.25 19.25V8.75C26.25 5.845 23.905 3.5 21 3.5C18.095 3.5 15.75 5.845 15.75 8.75V19.25C15.75 22.155 18.095 24.5 21 24.5ZM19.25 8.75C19.25 7.7875 20.0375 7 21 7C21.9625 7 22.75 7.7875 22.75 8.75V19.25C22.75 20.2125 21.9625 21 21 21C20.0375 21 19.25 20.2125 19.25 19.25V8.75ZM29.75 19.25C29.75 24.08 25.83 28 21 28C16.17 28 12.25 24.08 12.25 19.25H8.75C8.75 25.4275 13.3175 30.5025 19.25 31.36V36.75H22.75V31.36C28.6825 30.5025 33.25 25.4275 33.25 19.25H29.75Z" fill="white"/>
</svg>
