<svg width="84" height="84" viewBox="0 0 84 84" fill="none" xmlns="http://www.w3.org/2000/svg">
<rect width="84" height="84" rx="15" fill="url(#paint0_linear_15_3010)"/>
<path d="M22.1006 37.335L18.0615 50H14.3232L20.1133 34.3594H22.4766L22.1006 37.335ZM25.4521 50L21.4023 37.335L20.9834 34.3594H23.3789L29.1904 50H25.4521ZM25.2803 44.1777V46.8848H17.127V44.1777H25.2803ZM35.4102 46.5303L38.8906 34.3594H42.79L37.4297 50H34.8838L35.4102 46.5303ZM32.2412 34.3594L35.7109 46.5303L36.2588 50H33.6807L28.3525 34.3594H32.2412ZM52.2002 45.875C52.2002 45.61 52.1608 45.3737 52.082 45.166C52.0033 44.9512 51.86 44.7542 51.6523 44.5752C51.4447 44.3962 51.151 44.2171 50.7715 44.0381C50.3919 43.8519 49.8942 43.6621 49.2783 43.4688C48.5765 43.2396 47.9069 42.9818 47.2695 42.6953C46.6393 42.4017 46.0771 42.0615 45.583 41.6748C45.0889 41.2881 44.6986 40.8369 44.4121 40.3213C44.1328 39.8057 43.9932 39.2041 43.9932 38.5166C43.9932 37.8506 44.14 37.249 44.4336 36.7119C44.7272 36.1748 45.139 35.7165 45.6689 35.3369C46.1989 34.9502 46.8219 34.6566 47.5381 34.4561C48.2542 34.2484 49.042 34.1445 49.9014 34.1445C51.0472 34.1445 52.0534 34.3486 52.9199 34.7568C53.7936 35.1579 54.474 35.7236 54.9609 36.4541C55.4479 37.1774 55.6914 38.0189 55.6914 38.9785H52.2109C52.2109 38.556 52.1214 38.1836 51.9424 37.8613C51.7705 37.5319 51.5055 37.2741 51.1475 37.0879C50.7965 36.9017 50.3561 36.8086 49.8262 36.8086C49.3105 36.8086 48.8773 36.8874 48.5264 37.0449C48.1826 37.1953 47.9212 37.403 47.7422 37.668C47.5703 37.9329 47.4844 38.223 47.4844 38.5381C47.4844 38.7887 47.5488 39.0179 47.6777 39.2256C47.8138 39.4261 48.0072 39.6159 48.2578 39.7949C48.5156 39.9668 48.8307 40.1315 49.2031 40.2891C49.5755 40.4466 50.0016 40.597 50.4814 40.7402C51.3193 41.0052 52.0605 41.2988 52.7051 41.6211C53.3568 41.9434 53.9046 42.3086 54.3486 42.7168C54.7926 43.125 55.1257 43.5869 55.3477 44.1025C55.5768 44.6182 55.6914 45.2018 55.6914 45.8535C55.6914 46.5482 55.5553 47.1641 55.2832 47.7012C55.0182 48.2383 54.6315 48.6966 54.123 49.0762C53.6217 49.4486 53.0202 49.7314 52.3184 49.9248C51.6165 50.1182 50.8324 50.2148 49.9658 50.2148C49.1781 50.2148 48.401 50.1146 47.6348 49.9141C46.8685 49.7064 46.1738 49.3913 45.5508 48.9688C44.9349 48.5462 44.4408 48.0091 44.0684 47.3574C43.7031 46.6986 43.5205 45.918 43.5205 45.0156H47.0225C47.0225 45.4883 47.0905 45.8893 47.2266 46.2188C47.3626 46.541 47.556 46.8024 47.8066 47.0029C48.0645 47.2035 48.376 47.3467 48.7412 47.4326C49.1064 47.5186 49.5146 47.5615 49.9658 47.5615C50.4886 47.5615 50.9111 47.4899 51.2334 47.3467C51.5628 47.1963 51.8063 46.9922 51.9639 46.7344C52.1214 46.4766 52.2002 46.1901 52.2002 45.875ZM57.7539 34.3594H63.7588C64.9548 34.3594 65.9896 34.5384 66.8633 34.8965C67.7441 35.2546 68.4209 35.7845 68.8936 36.4863C69.3662 37.1882 69.6025 38.0547 69.6025 39.0859C69.6025 39.9453 69.4629 40.6758 69.1836 41.2773C68.9043 41.8789 68.5104 42.3766 68.002 42.7705C67.5007 43.1644 66.9134 43.4831 66.2402 43.7266L65.1016 44.3496H59.9883L59.9668 41.6318H63.7695C64.2923 41.6318 64.7256 41.5387 65.0693 41.3525C65.4131 41.1663 65.6709 40.9049 65.8428 40.5684C66.0218 40.2246 66.1113 39.8236 66.1113 39.3652C66.1113 38.8926 66.0218 38.4844 65.8428 38.1406C65.6637 37.7969 65.3988 37.5355 65.0479 37.3564C64.7041 37.1702 64.2744 37.0771 63.7588 37.0771H61.2559V50H57.7539V34.3594ZM66.4121 50L62.8994 43.0498L66.5947 43.0391L70.1611 49.8389V50H66.4121Z" fill="#121212"/>
<defs>
<linearGradient id="paint0_linear_15_3010" x1="42" y1="0" x2="42" y2="84" gradientUnits="userSpaceOnUse">
<stop stop-color="#00FFFF"/>
<stop offset="0.0001" stop-color="#12F9FF"/>
<stop offset="1" stop-color="#E0B0FF" stop-opacity="0.75"/>
</linearGradient>
</defs>
</svg>
