<svg width="720" height="720" viewBox="0 0 36 36" fill="none" xmlns="http://www.w3.org/2000/svg">
<path d="M31.0064 19.715C31.0764 19.155 31.1289 18.595 31.1289 18C31.1289 17.405 31.0764 16.845 31.0064 16.285L34.6989 13.3975C35.0314 13.135 35.1189 12.6625 34.9089 12.2775L31.4089 6.2225C31.2514 5.9425 30.9539 5.785 30.6389 5.785C30.5339 5.785 30.4289 5.8025 30.3414 5.8375L25.9839 7.5875C25.0739 6.8875 24.0939 6.31 23.0264 5.8725L22.3614 1.235C22.3089 0.815 21.9414 0.5 21.5039 0.5H14.5039C14.0664 0.5 13.6989 0.815 13.6464 1.235L12.9814 5.8725C11.9139 6.31 10.9339 6.905 10.0239 7.5875L5.66637 5.8375C5.56137 5.8025 5.45637 5.785 5.35137 5.785C5.05387 5.785 4.75637 5.9425 4.59887 6.2225L1.09887 12.2775C0.871369 12.6625 0.97637 13.135 1.30887 13.3975L5.00137 16.285C4.93137 16.845 4.87887 17.4225 4.87887 18C4.87887 18.5775 4.93137 19.155 5.00137 19.715L1.30887 22.6025C0.97637 22.865 0.888869 23.3375 1.09887 23.7225L4.59887 29.7775C4.75637 30.0575 5.05387 30.215 5.36887 30.215C5.47387 30.215 5.57887 30.1975 5.66637 30.1625L10.0239 28.4125C10.9339 29.1125 11.9139 29.69 12.9814 30.1275L13.6464 34.765C13.6989 35.185 14.0664 35.5 14.5039 35.5H21.5039C21.9414 35.5 22.3089 35.185 22.3614 34.765L23.0264 30.1275C24.0939 29.69 25.0739 29.095 25.9839 28.4125L30.3414 30.1625C30.4464 30.1975 30.5514 30.215 30.6564 30.215C30.9539 30.215 31.2514 30.0575 31.4089 29.7775L34.9089 23.7225C35.1189 23.3375 35.0314 22.865 34.6989 22.6025L31.0064 19.715ZM27.5414 16.7225C27.6114 17.265 27.6289 17.6325 27.6289 18C27.6289 18.3675 27.5939 18.7525 27.5414 19.2775L27.2964 21.255L28.8539 22.48L30.7439 23.95L29.5189 26.0675L27.2964 25.175L25.4764 24.44L23.9014 25.63C23.1489 26.19 22.4314 26.61 21.7139 26.9075L19.8589 27.66L19.5789 29.6375L19.2289 32H16.7789L16.1664 27.66L14.3114 26.9075C13.5589 26.5925 12.8589 26.19 12.1589 25.665L10.5664 24.44L8.71137 25.1925L6.48887 26.085L5.26387 23.9675L7.15387 22.4975L8.71137 21.2725L8.46637 19.295C8.41387 18.7525 8.37887 18.35 8.37887 18C8.37887 17.65 8.41387 17.2475 8.46637 16.7225L8.71137 14.745L7.15387 13.52L5.26387 12.05L6.48887 9.9325L8.71137 10.825L10.5314 11.56L12.1064 10.37C12.8589 9.81 13.5764 9.39 14.2939 9.0925L16.1489 8.34L16.4289 6.3625L16.7789 4H19.2114L19.8239 8.34L21.6789 9.0925C22.4314 9.4075 23.1314 9.81 23.8314 10.335L25.4239 11.56L27.2789 10.8075L29.5014 9.915L30.7264 12.0325L28.8539 13.52L27.2964 14.745L27.5414 16.7225ZM18.0039 11C14.1364 11 11.0039 14.1325 11.0039 18C11.0039 21.8675 14.1364 25 18.0039 25C21.8714 25 25.0039 21.8675 25.0039 18C25.0039 14.1325 21.8714 11 18.0039 11ZM18.0039 21.5C16.0789 21.5 14.5039 19.925 14.5039 18C14.5039 16.075 16.0789 14.5 18.0039 14.5C19.9289 14.5 21.5039 16.075 21.5039 18C21.5039 19.925 19.9289 21.5 18.0039 21.5Z" fill="white"/>
</svg>
