<svg width="840" height="840" viewBox="0 0 42 42" fill="none" xmlns="http://www.w3.org/2000/svg">
<path d="M34.0025 22.715C34.0725 22.155 34.125 21.595 34.125 21C34.125 20.405 34.0725 19.845 34.0025 19.285L37.695 16.3975C38.0275 16.135 38.115 15.6625 37.905 15.2775L34.405 9.2225C34.2475 8.9425 33.95 8.785 33.635 8.785C33.53 8.785 33.425 8.8025 33.3375 8.8375L28.98 10.5875C28.07 9.8875 27.09 9.31 26.0225 8.8725L25.3575 4.235C25.305 3.815 24.9375 3.5 24.5 3.5H17.5C17.0625 3.5 16.695 3.815 16.6425 4.235L15.9775 8.8725C14.91 9.31 13.93 9.905 13.02 10.5875L8.66249 8.8375C8.55749 8.8025 8.45249 8.785 8.34749 8.785C8.04999 8.785 7.75249 8.9425 7.59499 9.2225L4.09499 15.2775C3.86749 15.6625 3.97249 16.135 4.30499 16.3975L7.99749 19.285C7.92749 19.845 7.87499 20.4225 7.87499 21C7.87499 21.5775 7.92749 22.155 7.99749 22.715L4.30499 25.6025C3.97249 25.865 3.88499 26.3375 4.09499 26.7225L7.59499 32.7775C7.75249 33.0575 8.04999 33.215 8.36499 33.215C8.46999 33.215 8.57499 33.1975 8.66249 33.1625L13.02 31.4125C13.93 32.1125 14.91 32.69 15.9775 33.1275L16.6425 37.765C16.695 38.185 17.0625 38.5 17.5 38.5H24.5C24.9375 38.5 25.305 38.185 25.3575 37.765L26.0225 33.1275C27.09 32.69 28.07 32.095 28.98 31.4125L33.3375 33.1625C33.4425 33.1975 33.5475 33.215 33.6525 33.215C33.95 33.215 34.2475 33.0575 34.405 32.7775L37.905 26.7225C38.115 26.3375 38.0275 25.865 37.695 25.6025L34.0025 22.715V22.715ZM30.5375 19.7225C30.6075 20.265 30.625 20.6325 30.625 21C30.625 21.3675 30.59 21.7525 30.5375 22.2775L30.2925 24.255L31.85 25.48L33.74 26.95L32.515 29.0675L30.2925 28.175L28.4725 27.44L26.8975 28.63C26.145 29.19 25.4275 29.61 24.71 29.9075L22.855 30.66L22.575 32.6375L22.225 35H19.775L19.4425 32.6375L19.1625 30.66L17.3075 29.9075C16.555 29.5925 15.855 29.19 15.155 28.665L13.5625 27.44L11.7075 28.1925L9.48499 29.085L8.25999 26.9675L10.15 25.4975L11.7075 24.2725L11.4625 22.295C11.41 21.7525 11.375 21.35 11.375 21C11.375 20.65 11.41 20.2475 11.4625 19.7225L11.7075 17.745L10.15 16.52L8.25999 15.05L9.48499 12.9325L11.7075 13.825L13.5275 14.56L15.1025 13.37C15.855 12.81 16.5725 12.39 17.29 12.0925L19.145 11.34L19.425 9.3625L19.775 7H22.2075L22.54 9.3625L22.82 11.34L24.675 12.0925C25.4275 12.4075 26.1275 12.81 26.8275 13.335L28.42 14.56L30.275 13.8075L32.4975 12.915L33.7225 15.0325L31.85 16.52L30.2925 17.745L30.5375 19.7225ZM21 14C17.1325 14 14 17.1325 14 21C14 24.8675 17.1325 28 21 28C24.8675 28 28 24.8675 28 21C28 17.1325 24.8675 14 21 14ZM21 24.5C19.075 24.5 17.5 22.925 17.5 21C17.5 19.075 19.075 17.5 21 17.5C22.925 17.5 24.5 19.075 24.5 21C24.5 22.925 22.925 24.5 21 24.5Z" fill="white"/>
</svg>
