<svg width="480" height="480" viewBox="0 0 48 48" fill="none" xmlns="http://www.w3.org/2000/svg">
<path d="M17.6 36H26.35C26.8167 36 27.225 35.825 27.575 35.475C27.925 35.125 28.1 34.7167 28.1 34.25V31.5L32.1 33.8V26.2L28.1 28.5V25.75C28.1 25.2833 27.925 24.875 27.575 24.525C27.225 24.175 26.8167 24 26.35 24H17.6C17.1333 24 16.725 24.175 16.375 24.525C16.025 24.875 15.85 25.2833 15.85 25.75V34.25C15.85 34.7167 16.025 35.125 16.375 35.475C16.725 35.825 17.1333 36 17.6 36ZM11 44C10.2 44 9.5 43.7 8.9 43.1C8.3 42.5 8 41.8 8 41V7C8 6.2 8.3 5.5 8.9 4.9C9.5 4.3 10.2 4 11 4H29.05L40 14.95V41C40 41.8 39.7 42.5 39.1 43.1C38.5 43.7 37.8 44 37 44H11ZM27.55 16.3V7H11V41H37V16.3H27.55ZM11 7V16.3V7V16.3V41V7Z" fill="white"/>
</svg>
