<svg width="120" height="120" viewBox="0 0 120 120" fill="none" xmlns="http://www.w3.org/2000/svg">
<path d="M65.8579 15H45C35.5719 15 30.8579 15 27.9289 17.9289C25 20.8579 25 25.5719 25 35V85C25 94.4281 25 99.1421 27.9289 102.071C30.8579 105 35.5719 105 45 105H75C84.4281 105 89.1421 105 92.0711 102.071C95 99.1421 95 94.4281 95 85V44.1421C95 42.0984 95 41.0765 94.6194 40.1576C94.2388 39.2388 93.5162 38.5162 92.0711 37.0711L72.9289 17.9289C71.4838 16.4838 70.7612 15.7612 69.8423 15.3806C68.9235 15 67.9016 15 65.8579 15Z" stroke="white"/>
<path d="M53.3635 63.5844L53.1666 64.0439V64.0439L53.3635 63.5844ZM69.2766 70.4043L69.4736 69.9447L69.2766 70.4043ZM69.2766 79.5957L69.4736 80.0553L69.2766 79.5957ZM53.3635 86.4156L53.1666 85.9561H53.1666L53.3635 86.4156ZM53.1666 64.0439L69.0797 70.8638L69.4736 69.9447L53.5605 63.1248L53.1666 64.0439ZM69.0797 79.1362L53.1666 85.9561L53.5605 86.8752L69.4736 80.0553L69.0797 79.1362ZM44.5 69.0992V80.9008H45.5V69.0992H44.5ZM53.1666 85.9561C49.5373 87.5115 45.5 84.8493 45.5 80.9008H44.5C44.5 85.5672 49.2713 88.7134 53.5605 86.8752L53.1666 85.9561ZM69.0797 70.8638C72.7162 72.4223 72.7162 77.5777 69.0797 79.1362L69.4736 80.0553C73.9182 78.1505 73.9182 71.8495 69.4736 69.9447L69.0797 70.8638ZM53.5605 63.1248C49.2713 61.2866 44.5 64.4328 44.5 69.0992H45.5C45.5 65.1507 49.5373 62.4885 53.1666 64.0439L53.5605 63.1248Z" fill="white"/>
<path d="M65 15V35C65 39.714 65 42.0711 66.4645 43.5355C67.9289 45 70.286 45 75 45H95" stroke="white"/>
</svg>
